<svg width="60" height="60" viewBox="0 0 60 60" fill="none" xmlns="http://www.w3.org/2000/svg">
<rect x="11" y="21" width="37" height="19" fill="white"/>
<mask id="path-2-outside-1_4632_33" maskUnits="userSpaceOnUse" x="2" y="1.99976" width="56" height="56" fill="black">
<rect fill="white" x="2" y="1.99976" width="56" height="56"/>
<path fill-rule="evenodd" clip-rule="evenodd" d="M30 4.99976C43.8 4.99976 55 16.2248 55 29.9998L54.9904 30.6992C54.6196 44.1762 43.5661 54.9998 30 54.9998C16.225 54.9998 5 43.7998 5 29.9998C5 16.2248 16.225 4.99976 30 4.99976ZM20 34.9498C20.75 35.6748 21.925 35.6748 22.65 34.9248L30 27.5498L37.35 34.9248C38.075 35.6748 39.275 35.6748 40 34.9498C40.75 34.1998 40.75 33.0248 40 32.2998L31.325 23.5748C30.975 23.2248 30.5 23.0248 30 23.0248C29.5 23.0248 29.025 23.2248 28.675 23.5748L20 32.2998C19.625 32.6498 19.45 33.1248 19.45 33.5998C19.45 34.0998 19.625 34.5748 20 34.9498Z"/>
</mask>
<path fill-rule="evenodd" clip-rule="evenodd" d="M30 4.99976C43.8 4.99976 55 16.2248 55 29.9998L54.9904 30.6992C54.6196 44.1762 43.5661 54.9998 30 54.9998C16.225 54.9998 5 43.7998 5 29.9998C5 16.2248 16.225 4.99976 30 4.99976ZM20 34.9498C20.75 35.6748 21.925 35.6748 22.65 34.9248L30 27.5498L37.35 34.9248C38.075 35.6748 39.275 35.6748 40 34.9498C40.75 34.1998 40.75 33.0248 40 32.2998L31.325 23.5748C30.975 23.2248 30.5 23.0248 30 23.0248C29.5 23.0248 29.025 23.2248 28.675 23.5748L20 32.2998C19.625 32.6498 19.45 33.1248 19.45 33.5998C19.45 34.0998 19.625 34.5748 20 34.9498Z" fill="#141024"/>
<path d="M55 29.9998L57.9997 30.041L58 30.0204V29.9998H55ZM54.9904 30.6992L57.9893 30.7817L57.9898 30.761L57.9901 30.7404L54.9904 30.6992ZM22.65 34.9248L20.5251 32.807L20.5089 32.8232L20.493 32.8397L22.65 34.9248ZM20 34.9498L17.8787 37.0711L17.8967 37.0891L17.9149 37.1067L20 34.9498ZM30 27.5498L32.1249 25.432L30 23.2999L27.8751 25.432L30 27.5498ZM37.35 34.9248L39.507 32.8397L39.4911 32.8232L39.4749 32.807L37.35 34.9248ZM40 34.9498L37.8787 32.8284L37.8787 32.8284L40 34.9498ZM40 32.2998L37.8726 34.415L37.8936 34.4361L37.9149 34.4567L40 32.2998ZM31.325 23.5748L33.4524 21.4595L33.4463 21.4534L31.325 23.5748ZM28.675 23.5748L26.5537 21.4534L26.5476 21.4595L28.675 23.5748ZM20 32.2998L22.047 34.4929L22.0879 34.4547L22.1274 34.415L20 32.2998ZM58 29.9998C58 14.5699 45.4588 1.99976 30 1.99976V7.99976C42.1412 7.99976 52 17.8797 52 29.9998H58ZM57.9901 30.7404L57.9997 30.041L52.0003 29.9585L51.9907 30.658L57.9901 30.7404ZM30 57.9998C45.1955 57.9998 57.5739 45.8782 57.9893 30.7817L51.9915 30.6167C51.6653 42.4742 41.9368 51.9998 30 51.9998V57.9998ZM2 29.9998C2 45.4586 14.5701 57.9998 30 57.9998V51.9998C17.8799 51.9998 8 42.1409 8 29.9998H2ZM30 1.99976C14.5681 1.99976 2 14.5679 2 29.9998H8C8 17.8816 17.8819 7.99976 30 7.99976V1.99976ZM20.493 32.8397C20.9603 32.3563 21.6864 32.4074 22.0851 32.7928L17.9149 37.1067C19.8136 38.9421 22.8897 38.9932 24.807 37.0098L20.493 32.8397ZM27.8751 25.432L20.5251 32.807L24.7749 37.0425L32.1249 29.6675L27.8751 25.432ZM39.4749 32.807L32.1249 25.432L27.8751 29.6675L35.2251 37.0425L39.4749 32.807ZM37.8787 32.8284C38.3313 32.3758 39.0587 32.376 39.507 32.8397L35.193 37.0098C37.0913 38.9735 40.2187 38.9737 42.1213 37.0711L37.8787 32.8284ZM37.9149 34.4567C37.4248 33.9829 37.4774 33.2297 37.8787 32.8284L42.1213 37.0711C44.0226 35.1698 44.0752 32.0666 42.0851 30.1428L37.9149 34.4567ZM29.1976 25.69L37.8726 34.415L42.1274 30.1845L33.4524 21.4595L29.1976 25.69ZM30 26.0248C29.6953 26.0248 29.4099 25.9023 29.2037 25.6961L33.4463 21.4534C32.5401 20.5472 31.3047 20.0248 30 20.0248L30 26.0248ZM30.7963 25.6961C30.5901 25.9023 30.3047 26.0248 30 26.0248L30 20.0248C28.6953 20.0248 27.4599 20.5472 26.5537 21.4534L30.7963 25.6961ZM22.1274 34.415L30.8024 25.69L26.5476 21.4595L17.8726 30.1845L22.1274 34.415ZM22.45 33.5998C22.45 33.8572 22.3487 34.2113 22.047 34.4929L17.953 30.1066C16.9013 31.0882 16.45 32.3923 16.45 33.5998H22.45ZM22.1213 32.8284C22.2222 32.9293 22.3119 33.0616 22.3724 33.214C22.4317 33.3632 22.45 33.4981 22.45 33.5998H16.45C16.45 34.8313 16.8973 36.0897 17.8787 37.0711L22.1213 32.8284Z" fill="white" mask="url(#path-2-outside-1_4632_33)"/>
</svg>
