<svg width="60" height="60" viewBox="0 0 60 60" fill="none" xmlns="http://www.w3.org/2000/svg">
<rect x="11" y="12" width="37" height="28" fill="white"/>
<path fill-rule="evenodd" clip-rule="evenodd" d="M30 4.99976C43.8 4.99976 55 16.2248 55 29.9998L54.9904 30.6992C54.6196 44.1762 43.5661 54.9998 30 54.9998C16.225 54.9998 5 43.7998 5 29.9998C5 16.2248 16.225 4.99976 30 4.99976ZM20 34.9498C20.75 35.6748 21.925 35.6748 22.65 34.9248L30 27.5498L37.35 34.9248C38.075 35.6748 39.275 35.6748 40 34.9498C40.75 34.1998 40.75 33.0248 40 32.2998L31.325 23.5748C30.975 23.2248 30.5 23.0248 30 23.0248C29.5 23.0248 29.025 23.2248 28.675 23.5748L20 32.2998C19.625 32.6498 19.45 33.1248 19.45 33.5998C19.45 34.0998 19.625 34.5748 20 34.9498Z" fill="#141024"/>
</svg>
