<svg width="50" height="50" viewBox="0 0 50 50" fill="none" xmlns="http://www.w3.org/2000/svg">
<path fill-rule="evenodd" clip-rule="evenodd" d="M25 -0.000244141C38.8 -0.000244141 50 11.2248 50 24.9998L49.9904 25.6992C49.6196 39.1762 38.5661 49.9998 25 49.9998C11.225 49.9998 0 38.7998 0 24.9998C0 11.2248 11.225 -0.000244141 25 -0.000244141ZM15 29.9498C15.75 30.6748 16.925 30.6748 17.65 29.9248L25 22.5498L32.35 29.9248C33.075 30.6748 34.275 30.6748 35 29.9498C35.75 29.1998 35.75 28.0248 35 27.2998L26.325 18.5748C25.975 18.2248 25.5 18.0248 25 18.0248C24.5 18.0248 24.025 18.2248 23.675 18.5748L15 27.2998C14.625 27.6498 14.45 28.1248 14.45 28.5998C14.45 29.0998 14.625 29.5748 15 29.9498Z" fill="#141024"/>
</svg>
